<svg xmlns="http://www.w3.org/2000/svg"
 xmlns:xlink="http://www.w3.org/1999/xlink"
 width="17px" height="22px"  viewBox="0 0 17 22">
<path fill-rule="evenodd"  fill="#bcd9e0"
 d="M9.728546,2.111229 C6.2124634,1.4939728 2.8030396,3.8973541 2.1285095,7.4681015 C1.2912598,11.900215 5.7687683,19.408432 5.9599,19.725739 C6.1393433,20.024178 6.5378113,20.093605 6.8143005,19.8759 C7.1092224,19.643867 14.044678,14.1390915 14.8819275,9.707359 C15.5564575,6.1358643 13.244751,2.7284927 9.728546,2.111229 ZM7.8897095,11.84626 C6.1205444,11.535744 4.957489,9.821304 5.296936,8.024612 C5.6363525,6.2275467 7.351715,5.0186844 9.120728,5.3292007 C10.8897705,5.639717 12.052826,7.3545303 11.713409,9.151222 C11.373962,10.947914 9.658722,12.156776 7.8897095,11.84626 Z"/>
</svg>